<svg width="100" height="19" viewBox="0 0 100 19" fill="none" xmlns="http://www.w3.org/2000/svg">
<path d="M11.144 9.312C12.136 9.536 12.92 10.032 13.496 10.8C14.088 11.552 14.384 12.416 14.384 13.392C14.384 14.832 13.888 15.96 12.896 16.776C11.904 17.592 10.512 18 8.72 18H0.344V1.08H8.456C10.184 1.08 11.536 1.464 12.512 2.232C13.504 3 14 4.08 14 5.472C14 6.464 13.736 7.296 13.208 7.968C12.696 8.624 12.008 9.072 11.144 9.312ZM5.048 7.8H7.424C8.608 7.8 9.2 7.312 9.2 6.336C9.2 5.328 8.608 4.824 7.424 4.824H5.048V7.8ZM7.784 14.208C8.968 14.208 9.56 13.712 9.56 12.72C9.56 12.208 9.4 11.816 9.08 11.544C8.776 11.272 8.336 11.136 7.76 11.136H5.048V14.208H7.784ZM15.1976 11.256C15.1976 9.864 15.4456 8.648 15.9416 7.608C16.4536 6.568 17.1416 5.768 18.0056 5.208C18.8856 4.648 19.8616 4.368 20.9336 4.368C21.8616 4.368 22.6616 4.552 23.3336 4.92C24.0056 5.288 24.5256 5.784 24.8936 6.408V4.536H29.5976V18H24.8936V16.128C24.5256 16.752 23.9976 17.248 23.3096 17.616C22.6376 17.984 21.8456 18.168 20.9336 18.168C19.8616 18.168 18.8856 17.888 18.0056 17.328C17.1416 16.768 16.4536 15.968 15.9416 14.928C15.4456 13.872 15.1976 12.648 15.1976 11.256ZM24.8936 11.256C24.8936 10.392 24.6536 9.712 24.1736 9.216C23.7096 8.72 23.1336 8.472 22.4456 8.472C21.7416 8.472 21.1576 8.72 20.6936 9.216C20.2296 9.696 19.9976 10.376 19.9976 11.256C19.9976 12.12 20.2296 12.808 20.6936 13.32C21.1576 13.816 21.7416 14.064 22.4456 14.064C23.1336 14.064 23.7096 13.816 24.1736 13.32C24.6536 12.824 24.8936 12.136 24.8936 11.256ZM40.6541 4.416C42.1901 4.416 43.4061 4.936 44.3021 5.976C45.2141 7 45.6701 8.392 45.6701 10.152V18H40.9661V10.776C40.9661 10.008 40.7661 9.408 40.3661 8.976C39.9661 8.528 39.4301 8.304 38.7581 8.304C38.0541 8.304 37.5021 8.528 37.1021 8.976C36.7021 9.408 36.5021 10.008 36.5021 10.776V18H31.7981V0.24H36.5021V6.456C36.9181 5.848 37.4781 5.36 38.1821 4.992C38.9021 4.608 39.7261 4.416 40.6541 4.416ZM54.0352 18.168C52.6912 18.168 51.4832 17.888 50.4112 17.328C49.3552 16.768 48.5232 15.968 47.9152 14.928C47.3072 13.888 47.0032 12.664 47.0032 11.256C47.0032 9.864 47.3072 8.648 47.9152 7.608C48.5392 6.568 49.3792 5.768 50.4352 5.208C51.5072 4.648 52.7152 4.368 54.0592 4.368C55.4032 4.368 56.6032 4.648 57.6592 5.208C58.7312 5.768 59.5712 6.568 60.1792 7.608C60.8032 8.648 61.1152 9.864 61.1152 11.256C61.1152 12.648 60.8032 13.872 60.1792 14.928C59.5712 15.968 58.7312 16.768 57.6592 17.328C56.5872 17.888 55.3792 18.168 54.0352 18.168ZM54.0352 14.088C54.6912 14.088 55.2352 13.848 55.6672 13.368C56.1152 12.872 56.3392 12.168 56.3392 11.256C56.3392 10.344 56.1152 9.648 55.6672 9.168C55.2352 8.688 54.6992 8.448 54.0592 8.448C53.4192 8.448 52.8832 8.688 52.4512 9.168C52.0192 9.648 51.8032 10.344 51.8032 11.256C51.8032 12.184 52.0112 12.888 52.4272 13.368C52.8432 13.848 53.3792 14.088 54.0352 14.088ZM67.253 0.24V18H62.549V0.24H67.253ZM68.6838 11.256C68.6838 9.864 68.9318 8.648 69.4278 7.608C69.9398 6.568 70.6278 5.768 71.4918 5.208C72.3718 4.648 73.3478 4.368 74.4198 4.368C75.3478 4.368 76.1478 4.552 76.8198 4.92C77.4918 5.288 78.0118 5.784 78.3798 6.408V4.536H83.0838V18H78.3798V16.128C78.0118 16.752 77.4838 17.248 76.7958 17.616C76.1238 17.984 75.3318 18.168 74.4198 18.168C73.3478 18.168 72.3718 17.888 71.4918 17.328C70.6278 16.768 69.9398 15.968 69.4278 14.928C68.9318 13.872 68.6838 12.648 68.6838 11.256ZM78.3798 11.256C78.3798 10.392 78.1398 9.712 77.6598 9.216C77.1958 8.72 76.6198 8.472 75.9318 8.472C75.2278 8.472 74.6438 8.72 74.1798 9.216C73.7158 9.696 73.4838 10.376 73.4838 11.256C73.4838 12.12 73.7158 12.808 74.1798 13.32C74.6438 13.816 75.2278 14.064 75.9318 14.064C76.6198 14.064 77.1958 13.816 77.6598 13.32C78.1398 12.824 78.3798 12.136 78.3798 11.256ZM89.9883 6.408C90.3563 5.768 90.8763 5.272 91.5483 4.92C92.2203 4.552 93.0123 4.368 93.9243 4.368C94.9963 4.368 95.9643 4.648 96.8283 5.208C97.7083 5.768 98.3963 6.568 98.8923 7.608C99.4043 8.648 99.6603 9.864 99.6603 11.256C99.6603 12.648 99.4043 13.872 98.8923 14.928C98.3963 15.968 97.7083 16.768 96.8283 17.328C95.9643 17.888 94.9963 18.168 93.9243 18.168C93.0123 18.168 92.2203 17.992 91.5483 17.64C90.8763 17.272 90.3563 16.768 89.9883 16.128V18H85.2843V0.24H89.9883V6.408ZM94.8843 11.256C94.8843 10.376 94.6443 9.696 94.1643 9.216C93.7003 8.72 93.1243 8.472 92.4363 8.472C91.7483 8.472 91.1643 8.72 90.6843 9.216C90.2203 9.712 89.9883 10.392 89.9883 11.256C89.9883 12.136 90.2203 12.824 90.6843 13.32C91.1643 13.816 91.7483 14.064 92.4363 14.064C93.1243 14.064 93.7003 13.816 94.1643 13.32C94.6443 12.808 94.8843 12.12 94.8843 11.256Z" fill="#181818"/>
</svg>
