<svg width="600" height="70" viewBox="0 0 476 59" fill="none" xmlns="http://www.w3.org/2000/svg">
<path d="M3.32812 45L4.96875 37.2812L8.32812 34.3281L14.4531 45H17.7344L10.5469 32.5781L21.7031 22.4531H17.9844L5.85938 33.4062H5.79688L8.125 22.4531H5.25L0.453125 45H3.32812Z" fill="#181818"/>
<path d="M23.3154 55H24.5049V45.1357H23.3018L20.6768 47.0225V48.3213L23.2881 46.4414H23.3154V55Z" fill="#181818"/>
<path d="M35.2207 45L50.0645 11.1377H50.8945L64.9082 45H35.2207ZM59.0732 42.9248L49.1855 18.6084L38.4922 42.9248H59.0732Z" fill="#181818"/>
<path d="M70.3154 55H71.5049V45.1357H70.3018L67.6768 47.0225V48.3213L70.2881 46.4414H70.3154V55Z" fill="#181818"/>
<path d="M93.5195 35.7578H98.1064V34.0176H93.5195V29.2158H91.7793V34.0176H87.1924V35.7578H91.7793V40.6777H93.5195V35.7578Z" fill="#181818"/>
<path d="M113.328 45L114.969 37.2812L118.328 34.3281L124.453 45H127.734L120.547 32.5781L131.703 22.4531H127.984L115.859 33.4062H115.797L118.125 22.4531H115.25L110.453 45H113.328Z" fill="#181818"/>
<path d="M130.738 47.9795V47.9863H131.928V47.9795C131.928 46.8789 132.803 46.0449 133.958 46.0449C135.045 46.0449 135.913 46.8037 135.913 47.7539C135.913 48.5742 135.599 49.1006 134.272 50.4951L130.8 54.1523V55H137.308V53.9062H132.502V53.8789L134.997 51.3018C136.645 49.5996 137.144 48.7793 137.144 47.6787C137.144 46.168 135.756 44.9717 133.992 44.9717C132.133 44.9717 130.738 46.2568 130.738 47.9795Z" fill="#181818"/>
<path d="M145.221 45L160.064 11.1377H160.895L174.908 45H145.221ZM169.073 42.9248L159.186 18.6084L148.492 42.9248H169.073Z" fill="#181818"/>
<path d="M177.738 47.9795V47.9863H178.928V47.9795C178.928 46.8789 179.803 46.0449 180.958 46.0449C182.045 46.0449 182.913 46.8037 182.913 47.7539C182.913 48.5742 182.599 49.1006 181.272 50.4951L177.8 54.1523V55H184.308V53.9062H179.502V53.8789L181.997 51.3018C183.645 49.5996 184.144 48.7793 184.144 47.6787C184.144 46.168 182.756 44.9717 180.992 44.9717C179.133 44.9717 177.738 46.2568 177.738 47.9795Z" fill="#181818"/>
<path d="M206.52 35.7578H211.106V34.0176H206.52V29.2158H204.779V34.0176H200.192V35.7578H204.779V40.6777H206.52V35.7578Z" fill="#181818"/>
<path d="M226.328 45L227.969 37.2812L231.328 34.3281L237.453 45H240.734L233.547 32.5781L244.703 22.4531H240.984L228.859 33.4062H228.797L231.125 22.4531H228.25L223.453 45H226.328Z" fill="#181818"/>
<path d="M245.81 50.4473H247.047C248.455 50.4473 249.33 51.165 249.33 52.3271C249.33 53.3594 248.394 54.0977 247.088 54.0977C245.762 54.0977 244.921 53.4004 244.812 52.3887H243.629C243.718 54.0225 245.037 55.1641 247.102 55.1641C249.036 55.1641 250.581 53.9814 250.581 52.2861C250.581 50.8984 249.624 49.9756 248.134 49.8867V49.8594C249.364 49.6406 250.157 48.752 250.157 47.5146C250.157 46.0312 248.824 44.9717 247.061 44.9717C245.208 44.9717 243.964 46.0449 243.827 47.7197H245.01C245.119 46.6875 245.871 46.0381 247.006 46.0381C248.257 46.0381 248.92 46.7012 248.92 47.6787C248.92 48.6768 248.127 49.4082 246.992 49.4082H245.81V50.4473Z" fill="#181818"/>
<path d="M258.221 45L273.064 11.1377H273.895L287.908 45H258.221ZM282.073 42.9248L272.186 18.6084L261.492 42.9248H282.073Z" fill="#181818"/>
<path d="M292.81 50.4473H294.047C295.455 50.4473 296.33 51.165 296.33 52.3271C296.33 53.3594 295.394 54.0977 294.088 54.0977C292.762 54.0977 291.921 53.4004 291.812 52.3887H290.629C290.718 54.0225 292.037 55.1641 294.102 55.1641C296.036 55.1641 297.581 53.9814 297.581 52.2861C297.581 50.8984 296.624 49.9756 295.134 49.8867V49.8594C296.364 49.6406 297.157 48.752 297.157 47.5146C297.157 46.0312 295.824 44.9717 294.061 44.9717C292.208 44.9717 290.964 46.0449 290.827 47.7197H292.01C292.119 46.6875 292.871 46.0381 294.006 46.0381C295.257 46.0381 295.92 46.7012 295.92 47.6787C295.92 48.6768 295.127 49.4082 293.992 49.4082H292.81V50.4473Z" fill="#181818"/>
<path d="M331.793 41.1074C332.48 41.1074 333.018 40.5703 333.018 39.8828C333.018 39.1953 332.48 38.6582 331.793 38.6582C331.105 38.6582 330.568 39.1953 330.568 39.8828C330.568 40.5703 331.105 41.1074 331.793 41.1074ZM337.379 41.1074C338.066 41.1074 338.604 40.5703 338.604 39.8828C338.604 39.1953 338.066 38.6582 337.379 38.6582C336.691 38.6582 336.154 39.1953 336.154 39.8828C336.154 40.5703 336.691 41.1074 337.379 41.1074ZM342.965 41.1074C343.652 41.1074 344.189 40.5703 344.189 39.8828C344.189 39.1953 343.652 38.6582 342.965 38.6582C342.277 38.6582 341.74 39.1953 341.74 39.8828C341.74 40.5703 342.277 41.1074 342.965 41.1074Z" fill="#181818"/>
<path d="M383.52 35.7578H388.106V34.0176H383.52V29.2158H381.779V34.0176H377.192V35.7578H381.779V40.6777H383.52V35.7578Z" fill="#181818"/>
<path d="M403.328 45L404.969 37.2812L408.328 34.3281L414.453 45H417.734L410.547 32.5781L421.703 22.4531H417.984L405.859 33.4062H405.797L408.125 22.4531H405.25L400.453 45H403.328Z" fill="#181818"/>
<path d="M420.772 55H421.962V50.543C421.962 49.5586 422.646 48.8203 423.589 48.8203C424.471 48.8203 425.045 49.3809 425.045 50.2354V55H426.234V50.4814C426.234 49.5176 426.897 48.8203 427.841 48.8203C428.777 48.8203 429.317 49.3945 429.317 50.3652V55H430.507V50.0918C430.507 48.6836 429.598 47.7676 428.189 47.7676C427.191 47.7676 426.357 48.2734 425.961 49.1211H425.934C425.626 48.2598 424.908 47.7676 423.938 47.7676C422.98 47.7676 422.256 48.2734 421.921 49.0254H421.894V47.8906H420.772V55Z" fill="#181818"/>
<path d="M435.221 45L450.064 11.1377H450.895L464.908 45H435.221ZM459.073 42.9248L449.186 18.6084L438.492 42.9248H459.073Z" fill="#181818"/>
<path d="M469.188 55V51.5547L470.254 50.3789L473.952 55H475.524L471.108 49.5039L475.162 45.1357H473.61L469.256 49.9482H469.188V45.1357H467.957V55H469.188Z" fill="#181818"/>
</svg>
