<svg width="719" height="126" viewBox="0 0 719 126" fill="none" xmlns="http://www.w3.org/2000/svg">
<path d="M72.832 123.74H2.30957V121.753L38.2422 73.3594L2.30957 25.7178V23.7305H70.9521L72.4023 41.8311H70.2539C69.681 36.8896 68.2845 33.3626 66.0645 31.25C63.8802 29.1374 60.8187 28.0811 56.8799 28.0811H17.1338L47.3193 68.7402L13.5352 114.233H57.4707C59.9772 114.233 62.7165 113.75 65.6885 112.783C67.7295 112.139 69.4124 110.939 70.7373 109.185C72.098 107.466 73.2259 104.744 74.1211 101.021L76.2695 101.45L72.832 123.74Z" fill="#181818"/>
<path d="M126.312 79.2969V76.8906H111.047V79.2969H126.312ZM126.312 73.3125V70.9062H111.047V73.3125H126.312Z" fill="#181818"/>
<path d="M140.221 84L155.064 50.1377H155.895L169.908 84H140.221ZM164.073 81.9248L154.186 57.6084L143.492 81.9248H164.073Z" fill="#181818"/>
<path d="M172.01 95H173.719L175.018 88.9062C175.379 87.2266 176.59 86.1719 178.064 86.1719C179.363 86.1719 180.223 86.9141 180.223 88.1348C180.223 88.3984 180.184 88.7793 180.096 89.1895L178.855 95H180.564L181.863 88.8965C181.951 88.4668 182 88.0078 182 87.6562C182 85.9277 180.594 84.668 178.777 84.668C177.303 84.668 176.17 85.3516 175.496 86.4258H175.457L175.789 84.8438H174.168L172.01 95Z" fill="#181818"/>
<path d="M230.312 79.2969V76.8906H215.047V79.2969H230.312ZM230.312 73.3125V70.9062H215.047V73.3125H230.312Z" fill="#181818"/>
<path d="M246.328 85L247.969 77.2812L251.328 74.3281L257.453 85H260.734L253.547 72.5781L264.703 62.4531H260.984L248.859 73.4062H248.797L251.125 62.4531H248.25L243.453 85H246.328Z" fill="#181818"/>
<path d="M266.315 95H267.505V85.1357H266.302L263.677 87.0225V88.3213L266.288 86.4414H266.315V95Z" fill="#181818"/>
<path d="M278.221 85L293.064 51.1377H293.895L307.908 85H278.221ZM302.073 82.9248L292.186 58.6084L281.492 82.9248H302.073Z" fill="#181818"/>
<path d="M313.315 95H314.505V85.1357H313.302L310.677 87.0225V88.3213L313.288 86.4414H313.315V95Z" fill="#181818"/>
<path d="M336.52 75.7578H341.106V74.0176H336.52V69.2158H334.779V74.0176H330.192V75.7578H334.779V80.6777H336.52V75.7578Z" fill="#181818"/>
<path d="M356.328 85L357.969 77.2812L361.328 74.3281L367.453 85H370.734L363.547 72.5781L374.703 62.4531H370.984L358.859 73.4062H358.797L361.125 62.4531H358.25L353.453 85H356.328Z" fill="#181818"/>
<path d="M373.738 87.9795V87.9863H374.928V87.9795C374.928 86.8789 375.803 86.0449 376.958 86.0449C378.045 86.0449 378.913 86.8037 378.913 87.7539C378.913 88.5742 378.599 89.1006 377.272 90.4951L373.8 94.1523V95H380.308V93.9062H375.502V93.8789L377.997 91.3018C379.645 89.5996 380.144 88.7793 380.144 87.6787C380.144 86.168 378.756 84.9717 376.992 84.9717C375.133 84.9717 373.738 86.2568 373.738 87.9795Z" fill="#181818"/>
<path d="M388.221 85L403.064 51.1377H403.895L417.908 85H388.221ZM412.073 82.9248L402.186 58.6084L391.492 82.9248H412.073Z" fill="#181818"/>
<path d="M420.738 87.9795V87.9863H421.928V87.9795C421.928 86.8789 422.803 86.0449 423.958 86.0449C425.045 86.0449 425.913 86.8037 425.913 87.7539C425.913 88.5742 425.599 89.1006 424.272 90.4951L420.8 94.1523V95H427.308V93.9062H422.502V93.8789L424.997 91.3018C426.645 89.5996 427.144 88.7793 427.144 87.6787C427.144 86.168 425.756 84.9717 423.992 84.9717C422.133 84.9717 420.738 86.2568 420.738 87.9795Z" fill="#181818"/>
<path d="M449.52 75.7578H454.106V74.0176H449.52V69.2158H447.779V74.0176H443.192V75.7578H447.779V80.6777H449.52V75.7578Z" fill="#181818"/>
<path d="M469.328 85L470.969 77.2812L474.328 74.3281L480.453 85H483.734L476.547 72.5781L487.703 62.4531H483.984L471.859 73.4062H471.797L474.125 62.4531H471.25L466.453 85H469.328Z" fill="#181818"/>
<path d="M488.81 90.4473H490.047C491.455 90.4473 492.33 91.165 492.33 92.3271C492.33 93.3594 491.394 94.0977 490.088 94.0977C488.762 94.0977 487.921 93.4004 487.812 92.3887H486.629C486.718 94.0225 488.037 95.1641 490.102 95.1641C492.036 95.1641 493.581 93.9814 493.581 92.2861C493.581 90.8984 492.624 89.9756 491.134 89.8867V89.8594C492.364 89.6406 493.157 88.752 493.157 87.5146C493.157 86.0312 491.824 84.9717 490.061 84.9717C488.208 84.9717 486.964 86.0449 486.827 87.7197H488.01C488.119 86.6875 488.871 86.0381 490.006 86.0381C491.257 86.0381 491.92 86.7012 491.92 87.6787C491.92 88.6768 491.127 89.4082 489.992 89.4082H488.81V90.4473Z" fill="#181818"/>
<path d="M501.221 85L516.064 51.1377H516.895L530.908 85H501.221ZM525.073 82.9248L515.186 58.6084L504.492 82.9248H525.073Z" fill="#181818"/>
<path d="M535.81 90.4473H537.047C538.455 90.4473 539.33 91.165 539.33 92.3271C539.33 93.3594 538.394 94.0977 537.088 94.0977C535.762 94.0977 534.921 93.4004 534.812 92.3887H533.629C533.718 94.0225 535.037 95.1641 537.102 95.1641C539.036 95.1641 540.581 93.9814 540.581 92.2861C540.581 90.8984 539.624 89.9756 538.134 89.8867V89.8594C539.364 89.6406 540.157 88.752 540.157 87.5146C540.157 86.0312 538.824 84.9717 537.061 84.9717C535.208 84.9717 533.964 86.0449 533.827 87.7197H535.01C535.119 86.6875 535.871 86.0381 537.006 86.0381C538.257 86.0381 538.92 86.7012 538.92 87.6787C538.92 88.6768 538.127 89.4082 536.992 89.4082H535.81V90.4473Z" fill="#181818"/>
<path d="M574.793 81.1074C575.48 81.1074 576.018 80.5703 576.018 79.8828C576.018 79.1953 575.48 78.6582 574.793 78.6582C574.105 78.6582 573.568 79.1953 573.568 79.8828C573.568 80.5703 574.105 81.1074 574.793 81.1074ZM580.379 81.1074C581.066 81.1074 581.604 80.5703 581.604 79.8828C581.604 79.1953 581.066 78.6582 580.379 78.6582C579.691 78.6582 579.154 79.1953 579.154 79.8828C579.154 80.5703 579.691 81.1074 580.379 81.1074ZM585.965 81.1074C586.652 81.1074 587.189 80.5703 587.189 79.8828C587.189 79.1953 586.652 78.6582 585.965 78.6582C585.277 78.6582 584.74 79.1953 584.74 79.8828C584.74 80.5703 585.277 81.1074 585.965 81.1074Z" fill="#181818"/>
<path d="M626.52 75.7578H631.106V74.0176H626.52V69.2158H624.779V74.0176H620.192V75.7578H624.779V80.6777H626.52V75.7578Z" fill="#181818"/>
<path d="M646.328 85L647.969 77.2812L651.328 74.3281L657.453 85H660.734L653.547 72.5781L664.703 62.4531H660.984L648.859 73.4062H648.797L651.125 62.4531H648.25L643.453 85H646.328Z" fill="#181818"/>
<path d="M663.772 95H664.962V90.543C664.962 89.5586 665.646 88.8203 666.589 88.8203C667.471 88.8203 668.045 89.3809 668.045 90.2354V95H669.234V90.4814C669.234 89.5176 669.897 88.8203 670.841 88.8203C671.777 88.8203 672.317 89.3945 672.317 90.3652V95H673.507V90.0918C673.507 88.6836 672.598 87.7676 671.189 87.7676C670.191 87.7676 669.357 88.2734 668.961 89.1211H668.934C668.626 88.2598 667.908 87.7676 666.938 87.7676C665.98 87.7676 665.256 88.2734 664.921 89.0254H664.894V87.8906H663.772V95Z" fill="#181818"/>
<path d="M678.221 85L693.064 51.1377H693.895L707.908 85H678.221ZM702.073 82.9248L692.186 58.6084L681.492 82.9248H702.073Z" fill="#181818"/>
<path d="M712.188 95V91.5547L713.254 90.3789L716.952 95H718.524L714.108 89.5039L718.162 85.1357H716.61L712.256 89.9482H712.188V85.1357H710.957V95H712.188Z" fill="#181818"/>
</svg>
